<!DOCTYPE svg PUBLIC "-//W3C//DTD SVG 20010904//EN" "http://www.w3.org/TR/2001/REC-SVG-20010904/DTD/svg10.dtd">
<svg version="1.0" xmlns="http://www.w3.org/2000/svg" width="1592px" height="1600px" viewBox="0 0 15920 16000" preserveAspectRatio="xMidYMid meet">
<g id="layer101" fill="#dadada" stroke="none">
 <path d="M9022 13195 c-26 -33 -28 -81 -7 -143 8 -23 19 -88 24 -145 5 -56 21 -153 36 -216 14 -63 40 -185 56 -270 40 -205 81 -375 117 -486 67 -202 198 -549 292 -775 18 -41 47 -111 65 -155 18 -44 52 -125 75 -180 64 -152 80 -222 91 -390 14 -221 27 -351 44 -430 52 -244 86 -621 100 -1110 l6 -200 -26 45 c-39 67 -139 212 -224 325 -108 145 -277 310 -386 380 -49 31 -101 67 -115 80 -18 16 -43 25 -86 29 -124 13 -265 -75 -298 -185 -9 -30 -23 -80 -32 -111 -8 -32 -24 -68 -34 -80 l-19 -23 -43 41 c-78 75 -196 124 -296 124 -36 0 -45 -5 -85 -51 -65 -74 -93 -132 -126 -258 -16 -62 -31 -115 -34 -118 -3 -3 -48 36 -100 86 l-94 91 -69 0 c-141 -1 -247 -43 -327 -130 -75 -81 -101 -162 -100 -314 1 -161 33 -312 129 -607 87 -271 96 -300 91 -305 -6 -7 -80 110 -120 191 -77 155 -153 372 -267 765 -39 135 -86 292 -105 350 -19 58 -43 152 -55 210 -31 153 -67 262 -102 304 -16 20 -34 34 -39 31 -18 -11 -9 -83 17 -140 19 -41 34 -104 50 -214 13 -86 39 -212 59 -281 20 -69 54 -193 75 -277 56 -216 79 -301 97 -358 112 -360 193 -513 500 -943 245 -343 360 -545 405 -712 28 -104 30 -334 4 -435 -31 -117 -71 -184 -134 -222 l-37 -23 -12 85 c-31 213 -117 396 -277 588 l-56 67 -89 0 -88 0 -99 -102 c-54 -57 -108 -120 -119 -140 -11 -21 -25 -38 -31 -38 -14 0 -292 298 -449 480 -217 253 -410 533 -541 785 -86 165 -125 274 -195 545 -88 344 -99 383 -135 490 -20 58 -53 143 -75 190 -46 98 -136 222 -159 218 -23 -5 -24 -54 -2 -86 78 -109 154 -319 227 -622 26 -107 63 -260 82 -340 86 -360 158 -522 377 -850 195 -292 273 -388 487 -598 195 -191 213 -212 295 -340 221 -349 347 -492 514 -584 83 -46 178 -71 270 -72 l84 -1 99 145 c125 184 175 268 206 350 23 59 25 79 26 220 0 168 -9 223 -66 394 -81 241 -298 609 -428 724 -112 100 -135 155 -145 347 -4 90 -11 118 -60 257 -61 171 -91 276 -81 286 3 3 18 -2 33 -12 87 -57 196 -86 317 -86 86 1 206 24 269 53 l54 25 22 -61 c13 -34 62 -146 111 -248 48 -103 97 -215 109 -250 117 -352 196 -1324 144 -1759 -9 -74 -20 -225 -23 -335 -7 -219 -10 -233 -87 -365 -48 -82 -81 -121 -231 -272 l-136 -138 -71 0 c-259 0 -582 132 -816 335 -67 57 -153 109 -164 98 -3 -4 -6 -16 -6 -28 0 -17 15 -32 58 -57 32 -19 130 -90 217 -157 242 -187 340 -248 476 -298 64 -24 90 -28 185 -28 107 0 112 1 186 37 88 44 187 132 295 261 77 92 105 140 143 247 24 66 42 101 68 132 14 17 17 15 53 -17 94 -85 215 -119 394 -112 136 5 219 24 320 72 104 49 148 92 196 191 l42 84 8 187 c4 104 13 203 19 221 11 30 14 32 29 18 30 -27 105 -56 149 -56 25 0 66 10 98 25 30 14 57 25 59 25 25 0 144 97 248 201 l127 128 0 178 c0 199 -14 514 -31 673 -11 110 -53 380 -69 440 -5 19 -14 98 -20 175 -16 211 -34 252 -217 498 -89 120 -128 188 -144 248 -11 39 -9 65 10 180 18 103 22 159 18 244 -3 61 -10 301 -15 535 -19 749 -29 862 -103 1105 -49 158 -95 266 -258 607 -88 187 -115 261 -142 396 -11 59 -42 172 -69 252 -78 232 -144 451 -198 650 -59 218 -142 552 -142 572 0 8 -6 22 -13 32 -13 18 -15 17 -35 -9z m119 -3783 c52 -29 93 -67 192 -176 140 -154 137 -146 93 -235 -16 -33 -35 -51 -74 -74 -30 -16 -68 -33 -85 -36 -29 -6 -36 -1 -100 69 -111 120 -153 225 -159 400 l-3 74 30 7 c17 4 32 7 35 7 3 1 35 -16 71 -36z m-204 -19 c-3 -10 -13 -38 -22 -63 -26 -70 -16 -156 30 -246 67 -132 230 -262 351 -280 40 -6 48 -3 85 27 92 76 116 105 123 150 l7 44 41 -45 c43 -48 107 -144 207 -311 35 -59 102 -156 148 -215 202 -259 244 -345 297 -607 62 -310 104 -733 120 -1232 l6 -170 -73 -57 c-39 -31 -121 -102 -182 -157 l-110 -101 -61 0 c-58 0 -64 2 -93 35 -48 55 -59 93 -72 246 -9 114 -9 161 1 239 7 54 10 115 7 136 -23 155 -28 218 -37 450 -11 287 -19 345 -80 525 -73 221 -192 447 -393 749 -141 212 -174 254 -290 373 -189 193 -205 291 -77 476 21 30 43 51 54 51 13 0 17 -5 13 -17z m-452 -224 c28 -28 100 -93 160 -143 146 -123 213 -193 261 -274 62 -103 62 -99 -4 -109 -87 -11 -242 -8 -285 6 -112 38 -154 131 -177 396 -6 72 -15 134 -19 138 -5 4 -21 -18 -37 -49 -28 -56 -29 -62 -27 -198 2 -212 1 -208 118 -315 l100 -90 80 -1 c85 0 206 18 293 45 30 9 55 15 57 13 1 -2 36 -52 77 -113 41 -60 107 -157 148 -215 319 -459 360 -677 360 -1920 0 -383 -4 -531 -15 -613 -8 -60 -17 -117 -20 -127 -7 -21 -168 -112 -250 -140 -81 -28 -188 -48 -271 -51 -64 -2 -76 2 -167 45 -58 28 -104 57 -114 72 -20 31 -21 99 -4 214 10 68 10 193 2 625 -7 297 -16 605 -22 685 -29 430 -91 744 -196 1010 -48 120 -66 152 -150 265 -57 78 -98 162 -175 359 -43 112 -49 138 -45 178 7 54 59 179 119 286 l42 72 56 0 c54 0 57 -2 105 -51z m1334 -424 c192 -268 352 -512 379 -580 25 -60 51 -157 51 -185 0 -8 -15 31 -34 88 -36 108 -48 129 -128 226 -27 33 -91 123 -142 200 -51 78 -155 229 -232 336 -77 107 -143 202 -148 210 -4 8 22 -14 59 -50 36 -36 124 -146 195 -245z m-1870 112 c110 -148 163 -236 198 -327 18 -47 32 -92 33 -101 0 -9 -23 -27 -56 -44 -83 -42 -189 -41 -339 3 -60 18 -141 41 -178 52 -38 10 -70 20 -73 22 -2 2 -6 42 -10 89 -6 78 -4 90 26 169 20 54 41 93 58 108 46 38 142 94 186 108 76 24 79 22 155 -79z m-1194 -2029 c39 -36 111 -102 161 -146 115 -103 145 -140 284 -342 150 -218 220 -309 303 -397 38 -40 67 -73 64 -73 -14 0 -113 93 -163 155 -51 62 -89 118 -245 359 -21 32 -75 92 -121 132 -86 77 -217 211 -340 349 -74 82 -65 76 57 -37z m882 -260 c54 -76 135 -211 173 -288 93 -187 157 -459 118 -498 -7 -7 -27 -12 -45 -12 -26 0 -62 23 -185 117 -283 216 -382 322 -417 448 -10 36 -9 39 50 109 103 121 164 164 240 165 31 1 40 -5 66 -41z"/>
 <path d="M7107 13193 c-4 -3 -7 -30 -7 -60 l0 -53 -65 0 c-61 0 -66 -2 -75 -26 -16 -40 -12 -144 11 -292 26 -177 44 -238 74 -258 35 -23 56 -14 72 31 26 74 28 156 5 216 -22 61 -38 159 -25 159 23 -1 34 -23 48 -95 33 -176 58 -220 125 -227 l35 -3 6 50 c3 28 2 83 -4 123 -10 78 -4 99 19 67 20 -28 33 -80 50 -207 8 -61 17 -114 20 -119 3 -5 18 -9 34 -9 32 0 76 45 86 88 3 15 7 33 9 39 2 7 -2 28 -11 48 -31 76 -55 235 -35 235 12 0 35 -65 60 -174 23 -98 45 -131 92 -138 41 -6 51 11 51 94 1 62 3 69 11 43 5 -16 22 -48 37 -70 63 -92 140 -138 232 -139 l60 -1 19 50 c14 34 19 68 17 108 l-3 58 23 -28 c13 -15 58 -65 99 -110 l74 -83 59 0 c56 0 60 2 76 31 9 18 19 65 23 106 7 72 6 77 -23 122 -16 25 -49 87 -72 136 -39 82 -42 90 -24 93 10 2 30 -4 44 -13 15 -10 40 -15 68 -13 43 3 43 3 46 45 l3 43 -76 49 c-87 57 -149 80 -226 84 l-54 2 0 -65 0 -66 -70 43 c-82 51 -151 78 -222 88 -49 6 -53 5 -62 -17 -4 -12 -12 -49 -15 -81 -7 -54 -6 -60 22 -95 39 -49 97 -154 127 -233 35 -88 31 -86 -19 9 -55 105 -70 120 -115 124 -31 3 -37 7 -41 33 -4 22 -16 36 -47 53 -43 23 -54 44 -67 123 -7 41 -41 77 -75 81 -20 3 -26 -4 -41 -47 l-17 -50 -51 -3 c-57 -3 -63 -9 -81 -70 -10 -35 -16 -43 -33 -40 -15 2 -26 20 -43 72 -15 45 -35 80 -57 101 -34 34 -69 50 -81 38z m1003 -178 c0 -9 29 -73 65 -143 36 -70 57 -116 48 -102 -58 81 -123 130 -157 117 -9 -4 -18 -26 -22 -57 l-7 -51 -58 108 c-60 113 -60 130 0 99 56 -29 111 -16 111 26 0 10 5 18 10 18 6 0 10 -7 10 -15z"/>
 <path d="M6252 12998 c-7 -7 -12 -30 -12 -52 0 -68 -47 -345 -85 -501 -68 -285 -189 -604 -373 -985 -44 -91 -113 -235 -155 -320 -163 -336 -244 -529 -321 -762 -76 -231 -120 -431 -171 -785 -25 -169 -54 -356 -65 -414 -11 -58 -20 -143 -20 -188 0 -46 -9 -129 -20 -185 -33 -171 -51 -333 -56 -531 -7 -210 -2 -254 59 -545 32 -153 68 -360 131 -750 122 -756 162 -969 231 -1255 24 -99 46 -201 50 -228 4 -26 11 -50 16 -53 5 -3 7 -9 4 -14 -3 -5 1 -68 9 -142 9 -73 20 -207 26 -298 23 -358 46 -595 70 -705 8 -38 19 -152 40 -430 22 -292 31 -383 45 -450 49 -230 80 -458 140 -1030 89 -862 218 -1219 550 -1533 l88 -83 66 6 c101 10 118 14 134 38 8 12 61 74 117 137 147 165 211 273 258 435 53 179 77 468 66 790 -4 116 -8 372 -10 570 -5 684 -19 1201 -38 1335 -15 105 -17 174 -13 425 4 205 10 327 21 385 37 204 40 256 27 471 -12 199 -12 214 14 477 27 261 27 302 6 302 -19 0 -63 -114 -78 -200 -14 -73 -14 -117 -4 -315 12 -236 9 -302 -24 -459 -42 -208 -45 -363 -35 -2346 6 -1137 5 -1141 -61 -1398 -51 -197 -98 -276 -265 -435 -76 -72 -84 -77 -125 -77 -40 0 -47 4 -83 48 -52 64 -176 253 -218 332 -90 170 -183 437 -207 595 -5 39 -19 149 -30 245 -21 176 -24 197 -60 390 -10 58 -24 175 -30 260 -21 287 -33 405 -47 475 -24 122 -34 254 -34 473 0 184 -3 229 -24 335 -46 230 -71 450 -91 802 -20 347 -47 543 -113 830 -22 94 -56 256 -77 360 -59 311 -105 535 -125 620 -11 44 -24 136 -29 205 -6 69 -21 168 -35 222 -100 387 -149 807 -149 1268 0 331 17 525 66 780 14 69 33 204 42 300 19 187 26 230 73 465 17 83 49 244 72 358 22 115 54 252 71 305 29 92 121 284 259 542 201 376 360 716 438 935 86 241 161 739 134 886 -13 69 -22 85 -40 67z m-345 -11078 c49 -267 150 -550 268 -750 63 -105 162 -244 199 -279 38 -35 32 -44 -13 -22 -44 23 -87 78 -158 201 -78 137 -193 381 -235 500 -35 100 -90 389 -87 455 l1 20 5 -20 c2 -11 11 -58 20 -105z"/>
 <path d="M8357 10723 c-4 -3 -7 -16 -7 -27 0 -12 -7 -30 -15 -40 -8 -11 -22 -44 -31 -75 -27 -93 -185 -387 -308 -571 -127 -192 -538 -734 -627 -827 -48 -51 -101 -111 -117 -135 -78 -115 -77 -153 4 -97 148 101 458 462 566 657 64 116 106 154 208 184 47 14 110 31 141 37 182 38 486 324 492 463 2 27 -2 34 -19 36 -17 2 -33 -11 -67 -55 -103 -134 -267 -260 -456 -349 -51 -25 -95 -44 -96 -42 -2 2 21 35 51 73 110 141 223 352 282 530 35 105 57 208 49 230 -6 15 -38 21 -50 8z"/>
 </g>

</svg>